<?xml version="1.0" standalone="no"?>
<!DOCTYPE svg PUBLIC "-//W3C//DTD SVG 20010904//EN"
 "http://www.w3.org/TR/2001/REC-SVG-20010904/DTD/svg10.dtd">
<svg version="1.0" xmlns="http://www.w3.org/2000/svg"
 width="265.000000pt" height="190.000000pt" viewBox="0 0 265.000000 190.000000"
 preserveAspectRatio="xMidYMid meet">

<g transform="translate(0.000000,190.000000) scale(0.100000,-0.100000)"
fill="#000000" stroke="none">
<path d="M0 1800 c0 -55 4 -100 9 -100 4 0 48 -7 96 -15 48 -9 89 -14 91 -13
5 5 44 200 44 217 -1 9 -7 3 -15 -14 -14 -30 -14 -30 -9 -2 l6 27 -111 0 -111
0 0 -100z m190 61 c0 -6 -4 -13 -10 -16 -5 -3 -10 1 -10 9 0 9 5 16 10 16 6 0
10 -4 10 -9z m7 -93 c-3 -7 -5 -2 -5 12 0 14 2 19 5 13 2 -7 2 -19 0 -25z
m-134 -35 c-7 -2 -19 -2 -25 0 -7 3 -2 5 12 5 14 0 19 -2 13 -5z m100 -20 c-7
-2 -21 -2 -30 0 -10 3 -4 5 12 5 17 0 24 -2 18 -5z m-60 -10 c-7 -2 -21 -2
-30 0 -10 3 -4 5 12 5 17 0 24 -2 18 -5z"/>
<path d="M2361 1847 c-7 -10 -26 -17 -42 -17 -16 0 -29 -5 -29 -11 0 -7 10 -9
25 -5 14 4 25 2 25 -3 0 -12 -57 -20 -69 -8 -5 5 -11 5 -15 -1 -9 -15 37 -23
74 -12 18 5 37 7 41 4 5 -3 9 -1 9 4 0 6 -7 13 -16 16 -9 4 -14 9 -11 13 4 3
12 1 19 -4 7 -6 27 -13 45 -16 26 -5 31 -3 26 8 -3 8 -11 15 -18 15 -7 0 -16
6 -18 13 -4 10 -6 10 -6 0 -1 -19 -19 -16 -23 4 -3 15 -4 15 -17 0z"/>
<path d="M1838 1813 c7 -3 16 -2 19 1 4 3 -2 6 -13 5 -11 0 -14 -3 -6 -6z"/>
<path d="M2396 1791 c-5 -7 2 -11 16 -12 17 -1 18 -3 5 -6 -9 -2 -15 -9 -11
-14 8 -14 -4 -59 -17 -59 -6 0 -8 9 -4 21 6 18 5 19 -13 10 -28 -15 -35 -14
-28 4 3 9 0 15 -9 15 -9 0 -12 -6 -9 -15 4 -10 0 -15 -11 -15 -17 0 -14 11 11
40 11 13 8 15 -20 14 -18 -1 -38 -4 -44 -8 -7 -4 -12 -3 -12 3 0 14 -27 3 -33
-13 -4 -9 2 -11 20 -8 19 4 24 1 18 -7 -10 -18 -13 -71 -3 -77 4 -3 8 -10 8
-15 0 -6 -6 -4 -14 3 -7 8 -13 25 -12 38 0 13 -3 25 -9 27 -5 1 -10 -10 -10
-27 0 -16 4 -30 9 -30 4 0 6 -11 4 -24 -4 -18 0 -26 15 -30 13 -3 18 -10 13
-22 -5 -13 -1 -16 24 -12 16 3 30 1 30 -3 0 -12 29 -19 60 -13 16 4 28 11 27
18 -1 6 3 10 9 9 7 -1 17 11 24 27 7 17 16 30 21 30 5 0 9 5 9 11 0 6 -7 9
-15 5 -9 -3 -15 0 -15 10 0 8 -4 12 -10 9 -5 -3 -10 -1 -10 4 0 13 6 14 29 2
9 -5 21 -7 27 -3 13 10 17 35 4 27 -5 -3 -10 -1 -10 4 0 6 5 11 10 11 14 0 13
27 -1 36 -6 3 -15 1 -19 -6 -5 -8 -10 -9 -14 -1 -4 6 4 13 19 17 25 6 26 15 2
20 -7 2 -22 6 -33 9 -12 4 -25 2 -28 -4z m-96 -40 c0 -5 -7 -11 -15 -15 -15
-5 -20 5 -8 17 9 10 23 9 23 -2z m158 -30 c-10 -16 -15 -18 -26 -8 -12 10 -11
13 9 18 13 4 25 7 27 8 1 1 -3 -8 -10 -18z m-178 -17 c0 -8 -4 -12 -10 -9 -5
3 -10 10 -10 16 0 5 5 9 10 9 6 0 10 -7 10 -16z m90 -3 c0 -6 -4 -13 -10 -16
-5 -3 -10 1 -10 9 0 9 5 16 10 16 6 0 10 -4 10 -9z m-45 -11 c-3 -5 -10 -10
-16 -10 -5 0 -9 5 -9 10 0 6 7 10 16 10 8 0 12 -4 9 -10z m-35 -14 c0 -3 -4
-8 -10 -11 -5 -3 -10 -1 -10 4 0 6 5 11 10 11 6 0 10 -2 10 -4z m40 -16 c0 -5
-5 -10 -11 -10 -5 0 -7 5 -4 10 3 6 8 10 11 10 2 0 4 -4 4 -10z m50 0 c0 -5
-4 -10 -10 -10 -5 0 -10 5 -10 10 0 6 5 10 10 10 6 0 10 -4 10 -10z m-35 -30
c3 -5 1 -10 -4 -10 -6 0 -11 5 -11 10 0 6 2 10 4 10 3 0 8 -4 11 -10z m-35
-20 c0 -5 -2 -10 -4 -10 -3 0 -8 5 -11 10 -3 6 -1 10 4 10 6 0 11 -4 11 -10z"/>
<path d="M2186 1693 c-6 -14 -5 -15 5 -6 7 7 10 15 7 18 -3 3 -9 -2 -12 -12z"/>
<path d="M0 1665 c0 -9 10 -15 25 -15 14 0 66 -7 115 -16 120 -20 154 -17 158
16 2 22 1 23 -8 8 -15 -25 -39 -23 -262 17 -20 3 -28 0 -28 -10z"/>
<path d="M421 1596 c6 -6 194 -36 216 -35 10 1 -27 9 -82 19 -101 19 -142 24
-134 16z"/>
<path d="M0 1520 c0 -38 2 -40 43 -51 26 -7 56 -26 80 -50 36 -39 37 -41 22
-69 -18 -34 -49 -45 -105 -36 -31 5 -40 3 -40 -8 0 -35 151 -35 164 1 4 8 1
11 -5 7 -6 -3 -5 4 3 15 8 14 14 17 16 9 6 -23 62 -62 74 -50 14 14 3 42 -32
79 -26 28 -29 35 -19 57 7 14 25 29 40 35 36 12 40 48 7 55 -13 3 -52 12 -88
20 -36 8 -86 17 -112 20 l-48 6 0 -40z m157 -49 c12 -15 17 -41 9 -41 -2 0
-20 16 -39 35 -34 34 -34 35 -8 28 14 -3 31 -13 38 -22z"/>
<path d="M690 1550 c19 -5 125 -23 235 -41 110 -17 364 -60 565 -94 201 -34
369 -60 375 -57 10 6 -1144 201 -1185 200 -19 0 -17 -2 10 -8z"/>
<path d="M1808 1513 c6 -2 18 -2 25 0 6 3 1 5 -13 5 -14 0 -19 -2 -12 -5z"/>
<path d="M2232 1492 c27 -8 51 -12 55 -9 10 11 2 14 -52 20 l-50 5 47 -16z"/>
<path d="M561 1335 c-30 -96 -42 -180 -44 -295 -2 -88 0 -104 16 -114 24 -15
37 6 37 59 0 27 13 66 38 115 77 154 174 250 253 250 36 0 37 -1 42 -42 4 -41
-14 -91 -31 -85 -4 1 -23 -8 -42 -20 -19 -11 -55 -27 -79 -34 -39 -11 -41 -14
-25 -26 9 -7 28 -10 40 -7 39 10 91 -13 104 -46 30 -71 -7 -194 -80 -269 -85
-87 -160 -61 -160 55 0 39 5 51 34 80 19 19 44 34 58 34 12 0 30 5 38 10 11 7
5 10 -25 10 -82 0 -135 -61 -135 -154 0 -120 136 -154 240 -60 52 47 100 144
100 202 0 48 -24 107 -49 122 -45 26 -45 27 -2 65 75 68 78 150 7 180 -79 33
-168 -30 -267 -190 -57 -93 -59 -86 -24 87 14 68 25 126 25 130 0 5 -11 8 -25
8 -21 0 -27 -8 -44 -65z m27 24 c-6 -16 -12 -28 -14 -26 -5 5 13 57 20 57 3 0
0 -14 -6 -31z m303 -407 c-9 -31 -39 -92 -46 -92 -2 0 4 19 14 43 10 23 21 50
24 60 10 28 16 19 8 -11z"/>
<path d="M882 1260 c-18 -29 -15 -38 4 -12 9 13 14 25 12 27 -2 2 -9 -5 -16
-15z"/>
<path d="M1170 1258 c-105 -54 -182 -213 -183 -379 -1 -66 3 -92 16 -113 40
-61 94 -56 164 15 21 21 41 39 46 39 4 0 7 -13 7 -29 0 -99 85 -152 139 -87 7
9 36 23 64 31 28 8 61 22 73 30 22 14 23 14 21 -27 -2 -37 2 -44 32 -65 41
-28 68 -23 134 23 67 48 75 45 61 -24 -5 -25 -14 -34 -43 -43 -114 -37 -220
-117 -222 -169 -5 -103 57 -159 159 -144 89 13 136 82 154 229 12 95 13 96 46
112 44 21 111 84 95 90 -7 3 -33 -12 -59 -31 -58 -45 -68 -45 -60 -3 19 101
19 104 0 111 -12 5 -23 1 -31 -10 -12 -17 -14 -17 -28 2 -8 10 -15 22 -15 25
0 13 -61 31 -101 31 -34 -1 -48 -8 -90 -47 -44 -41 -102 -75 -128 -75 -6 0 3
25 20 56 44 85 37 159 -20 189 -57 29 -73 21 -155 -78 -111 -135 -188 -197
-207 -166 -13 21 -22 115 -15 152 8 43 52 78 168 135 122 60 170 122 134 177
-40 61 -109 78 -176 43z m138 -24 c61 -43 0 -130 -137 -195 -47 -23 -89 -46
-93 -52 -15 -24 -17 1 -3 45 48 161 157 256 233 202z m-174 -15 c-10 -12 -19
-24 -19 -28 0 -3 -3 -5 -6 -4 -4 1 -20 -22 -35 -52 -16 -29 -30 -52 -32 -50
-11 11 87 155 106 155 3 0 -3 -9 -14 -21z m300 -251 c32 -45 9 -168 -37 -206
-20 -17 -49 -3 -73 33 -25 38 -15 137 16 170 30 32 73 33 94 3z m-191 -123
c-3 -9 -8 -14 -10 -11 -3 3 -2 9 2 15 9 16 15 13 8 -4z m485 -23 c32 -41 0
-87 -85 -126 -45 -20 -73 -16 -73 9 0 9 9 38 21 65 31 72 100 99 137 52z
m-383 -109 c-31 -27 -52 -29 -58 -5 -27 97 -18 112 39 64 l45 -37 -26 -22z
m211 75 c-9 -5 -16 -17 -17 -26 0 -9 -3 -12 -5 -5 -7 17 15 55 28 47 7 -4 5
-10 -6 -16z m184 -182 c0 -27 -34 -185 -44 -204 -42 -81 -138 -93 -179 -23
-43 74 -10 134 105 190 72 35 118 50 118 37z m-3 -138 c-3 -8 -6 -5 -6 6 -1
11 2 17 5 13 3 -3 4 -12 1 -19z m-15 -50 c-8 -8 -9 -4 -5 13 4 13 8 18 11 10
2 -7 -1 -18 -6 -23z"/>
<path d="M15 1201 c11 -4 46 -11 77 -15 32 -4 60 -12 63 -17 4 -5 -16 -123
-44 -261 -78 -393 -111 -573 -111 -602 0 -30 15 -34 29 -8 11 21 161 816 161
855 0 15 -1 27 -3 27 -2 0 -30 5 -63 10 -102 18 -131 21 -109 11z"/>
<path d="M2365 1150 c4 -6 11 -8 16 -5 14 9 11 15 -7 15 -8 0 -12 -5 -9 -10z"/>
<path d="M2546 1135 c-3 -8 -1 -15 4 -15 6 0 10 7 10 15 0 8 -2 15 -4 15 -2 0
-6 -7 -10 -15z"/>
<path d="M2396 1103 c-6 -14 -5 -15 5 -6 7 7 10 15 7 18 -3 3 -9 -2 -12 -12z"/>
<path d="M295 1093 c-3 -10 -19 -76 -35 -147 -16 -71 -33 -132 -38 -135 -16
-10 -72 -285 -71 -348 l1 -58 12 38 c6 21 17 41 23 45 10 6 21 51 68 265 7 31
9 57 5 57 -3 0 6 66 22 147 26 136 30 179 13 136z"/>
<path d="M2580 1100 c-8 -5 -11 -12 -7 -16 4 -4 13 -2 19 4 15 15 7 24 -12 12z"/>
<path d="M2410 1080 c0 -5 7 -10 16 -10 8 0 12 5 9 10 -3 6 -10 10 -16 10 -5
0 -9 -4 -9 -10z"/>
<path d="M251 1023 c-6 -21 -11 -47 -10 -58 0 -11 7 5 14 35 15 63 12 81 -4
23z"/>
<path d="M2590 1051 c0 -5 -8 -7 -19 -4 -11 3 -21 -2 -24 -11 -7 -19 4 -21 21
-4 9 9 12 9 12 1 0 -7 -9 -15 -20 -18 -11 -3 -20 -11 -20 -17 0 -5 -7 -7 -16
-4 -10 4 -14 1 -12 -6 3 -7 17 -15 32 -19 23 -7 29 -4 38 19 5 15 14 35 19 44
12 23 11 28 -1 28 -5 0 -10 -4 -10 -9z"/>
<path d="M2417 1043 c-10 -10 -8 -25 2 -18 5 3 9 -8 9 -24 -1 -19 -5 -28 -12
-24 -6 4 -5 -1 3 -10 12 -15 16 -16 30 -3 19 17 50 0 44 -24 -4 -13 -3 -13 6
0 7 11 6 21 -4 37 -13 20 -13 22 5 28 33 11 24 32 -11 27 -22 -3 -30 -1 -25 7
8 12 -35 16 -47 4z"/>
<path d="M2340 980 c0 -11 4 -20 9 -20 11 0 22 26 14 34 -12 12 -23 5 -23 -14z"/>
<path d="M2590 970 c0 -5 5 -10 10 -10 6 0 10 -4 10 -8 0 -12 -32 -11 -47 1
-14 10 -16 6 -7 -16 3 -8 13 -13 23 -10 11 3 21 -2 26 -14 7 -16 9 -15 15 7 3
14 2 33 -4 43 -12 19 -26 23 -26 7z"/>
<path d="M2520 946 c0 -9 5 -16 10 -16 6 0 10 4 10 9 0 6 -4 13 -10 16 -5 3
-10 -1 -10 -9z"/>
<path d="M2394 936 c-8 -22 3 -33 18 -18 9 9 9 15 0 24 -9 9 -13 7 -18 -6z"/>
<path d="M2560 780 c0 -5 5 -10 11 -10 5 0 7 5 4 10 -3 6 -8 10 -11 10 -2 0
-4 -4 -4 -10z"/>
<path d="M2575 597 c-58 -31 -65 -32 -177 -32 -64 0 -114 -3 -111 -7 2 -5 12
-8 21 -8 14 0 14 -2 3 -9 -21 -13 50 -31 125 -31 64 0 164 33 164 53 0 6 12
24 27 39 34 36 23 35 -52 -5z"/>
<path d="M3 65 c0 -38 2 -53 4 -32 2 20 2 52 0 70 -2 17 -4 1 -4 -38z"/>
<path d="M1459 62 c-3 -20 -2 -29 4 -23 5 5 7 19 5 32 -3 20 -5 19 -9 -9z"/>
<path d="M1544 70 c0 -13 4 -16 10 -10 7 7 7 13 0 20 -6 6 -10 3 -10 -10z"/>
<path d="M1575 79 c-6 -8 -4 -10 5 -4 9 5 10 1 6 -16 -6 -21 -6 -22 5 -6 7 13
8 22 1 29 -6 6 -12 6 -17 -3z"/>
<path d="M1617 83 c-10 -10 -8 -23 4 -23 5 0 8 4 5 9 -4 5 0 12 6 14 7 3 8 6
2 6 -6 1 -14 -2 -17 -6z"/>
<path d="M932 60 c0 -14 2 -19 5 -12 2 6 2 18 0 25 -3 6 -5 1 -5 -13z"/>
<path d="M1085 70 c3 -5 8 -10 11 -10 2 0 4 5 4 10 0 6 -5 10 -11 10 -5 0 -7
-4 -4 -10z"/>
<path d="M1691 66 c-9 -11 -9 -16 0 -22 7 -4 9 -3 5 4 -3 5 0 12 6 15 7 2 10
7 7 11 -3 4 -12 0 -18 -8z"/>
<path d="M871 54 c0 -11 3 -14 6 -6 3 7 2 16 -1 19 -3 4 -6 -2 -5 -13z"/>
<path d="M911 57 c-1 -11 -6 -15 -13 -11 -7 5 -8 3 -3 -5 10 -16 29 2 22 21
-4 8 -6 7 -6 -5z"/>
<path d="M1190 60 c0 -5 5 -10 11 -10 5 0 7 5 4 10 -3 6 -8 10 -11 10 -2 0 -4
-4 -4 -10z"/>
<path d="M1629 43 c-12 -16 -12 -17 2 -6 9 7 20 9 24 5 5 -4 5 -1 1 6 -9 16
-11 15 -27 -5z"/>
</g>
</svg>
