<?xml version="1.0" standalone="no"?>
<!DOCTYPE svg PUBLIC "-//W3C//DTD SVG 20010904//EN"
 "http://www.w3.org/TR/2001/REC-SVG-20010904/DTD/svg10.dtd">
<svg version="1.0" xmlns="http://www.w3.org/2000/svg"
 width="276.000000pt" height="183.000000pt" viewBox="0 0 276.000000 183.000000"
 preserveAspectRatio="xMidYMid meet">

<g transform="translate(0.000000,183.000000) scale(0.100000,-0.100000)"
fill="#000000" stroke="none">
<path d="M0 1120 l0 -711 33 -19 c17 -10 37 -20 42 -21 6 -1 37 -20 70 -43 72
-49 89 -60 135 -83 19 -10 54 -30 77 -45 23 -16 46 -28 51 -28 5 0 17 -9 27
-20 10 -11 23 -20 29 -20 6 0 28 -9 49 -20 20 -11 43 -20 50 -20 7 0 23 -9 35
-20 12 -11 26 -20 32 -20 5 0 10 -7 10 -15 0 -8 7 -15 15 -15 8 0 15 -4 15
-10 0 -5 18 -10 40 -10 22 0 40 3 40 8 0 4 -19 23 -41 42 -23 19 -50 43 -60
52 -11 10 -22 18 -25 18 -3 0 -30 11 -60 25 -30 14 -59 25 -65 25 -6 0 -23 8
-37 18 -15 9 -36 22 -47 28 -13 8 -19 19 -17 35 4 20 2 21 -12 9 -12 -9 -20
-10 -27 -3 -7 7 5 18 40 36 l51 25 -56 51 c-31 29 -54 54 -52 56 3 3 13 -4 23
-15 10 -11 22 -20 27 -20 9 0 62 -44 92 -78 11 -12 26 -20 34 -17 8 3 36 -8
63 -25 27 -16 53 -30 57 -30 4 0 18 -12 32 -27 l25 -26 -35 6 c-19 4 -40 14
-47 23 -6 9 -20 14 -30 12 -16 -3 -15 -6 9 -28 54 -51 85 -67 152 -79 27 -5
51 -13 55 -18 3 -5 17 -17 31 -27 l25 -18 -37 5 c-28 4 -38 2 -38 -8 0 -23 12
-45 21 -39 5 3 9 0 9 -5 0 -7 304 -11 975 -11 l975 0 0 915 0 915 -732 -1
c-643 -1 -729 -2 -700 -15 34 -15 43 -34 16 -34 -18 0 -56 19 -65 33 -4 5 -42
12 -85 15 -72 5 -78 4 -65 -12 17 -20 -2 -22 -22 -1 -20 20 -257 21 -257 1 0
-13 53 -64 88 -84 20 -11 22 -10 22 12 0 20 -7 25 -37 31 -42 8 -31 20 22 27
24 2 29 0 27 -15 -2 -12 7 -21 29 -29 29 -10 31 -12 14 -24 -12 -9 -16 -21
-13 -39 5 -21 2 -25 -13 -20 -38 12 -18 -15 26 -36 25 -12 45 -25 45 -29 0 -4
12 -10 28 -14 31 -7 80 -42 70 -51 -8 -8 -68 23 -68 35 0 6 -6 10 -13 10 -7 0
-29 8 -49 19 -26 13 -40 15 -48 7 -7 -7 -17 -3 -33 13 -17 19 -18 23 -4 18 9
-4 17 -2 17 4 0 6 -8 13 -19 16 -13 3 -17 11 -14 24 4 13 0 19 -11 19 -9 0
-16 4 -16 9 0 15 -54 45 -58 33 -2 -7 -10 -12 -17 -12 -7 0 -16 -7 -19 -16 -5
-12 -14 -15 -37 -10 -24 4 -36 1 -54 -16 -20 -19 -21 -23 -6 -40 8 -10 23 -18
33 -18 10 0 18 -4 18 -10 0 -5 10 -14 21 -21 17 -9 23 -8 30 2 8 13 13 5 10
-14 -1 -5 4 -7 11 -4 7 2 12 11 10 21 -2 9 4 16 13 16 8 0 15 -4 15 -10 0 -5
22 -21 50 -35 27 -14 50 -30 50 -35 0 -5 12 -16 28 -25 l27 -16 -35 7 c-22 4
-51 22 -77 47 -33 31 -46 38 -55 29 -9 -9 -6 -13 12 -20 17 -6 19 -10 9 -14
-15 -6 -49 8 -147 61 -29 16 -55 25 -58 20 -10 -16 -34 -9 -34 10 0 11 -6 22
-13 25 -8 4 -5 10 10 21 12 9 32 26 45 37 l23 20 -25 -7 c-14 -4 -22 -4 -18 0
14 14 -13 35 -37 29 -23 -6 -41 18 -29 37 9 15 28 10 90 -21 32 -16 64 -30 71
-30 7 0 16 -7 21 -16 13 -23 30 -9 25 20 -4 20 -12 25 -56 30 -29 4 -65 14
-82 21 -35 17 -104 16 -98 -1 4 -12 -44 -7 -62 6 -17 13 -117 11 -109 -1 4 -8
0 -8 -14 0 -13 7 -89 11 -201 11 l-181 0 0 -710z m482 665 c13 5 16 2 12 -9
-7 -18 33 -37 83 -40 39 -1 50 -11 33 -31 -12 -14 -15 -14 -22 -2 -4 8 -23 18
-41 21 -18 3 -43 15 -55 26 -12 11 -27 20 -33 20 -15 0 -49 30 -49 42 0 5 12
0 27 -11 15 -13 34 -19 45 -16z m1003 26 c3 -5 31 -16 63 -23 l57 -13 -50 -6
c-56 -6 -115 12 -115 36 0 16 35 21 45 6z m-223 -44 c7 -8 19 -12 26 -9 14 4
17 -34 3 -42 -10 -7 -71 41 -71 55 0 14 27 11 42 -4z m-677 -7 c17 -8 16 -8
-7 -7 -16 1 -28 5 -28 9 0 10 9 9 35 -2z m879 -25 c4 -10 -1 -15 -14 -15 -11
0 -20 7 -20 15 0 8 6 15 14 15 8 0 16 -7 20 -15z m334 -89 c23 -10 42 -23 42
-27 0 -7 -44 8 -89 30 -18 10 -52 24 -98 41 -17 6 -34 19 -38 28 -12 33 19 28
79 -12 34 -22 80 -50 104 -60z m-723 64 c3 -5 15 -10 25 -10 10 0 25 -6 32
-13 7 -7 25 -20 41 -30 15 -10 27 -22 27 -27 0 -13 -61 10 -67 26 -6 16 -33
19 -33 4 0 -6 11 -15 24 -19 13 -5 26 -17 30 -26 4 -12 14 -16 32 -12 23 4 28
0 42 -35 16 -41 50 -51 44 -13 -2 16 -1 17 7 6 5 -8 7 -20 4 -28 -3 -7 -1 -13
5 -13 6 0 12 6 15 13 4 9 7 9 17 0 11 -10 9 -14 -11 -21 -25 -9 -77 12 -109
45 -8 9 -9 13 -2 9 7 -4 12 -1 12 7 0 10 -8 13 -25 9 -15 -2 -25 0 -25 7 0 6
-7 11 -14 11 -8 0 -35 14 -59 30 -25 17 -50 30 -57 30 -6 0 -9 4 -6 9 3 5 15
7 26 4 11 -3 20 0 20 6 0 6 -9 11 -19 11 -10 0 -21 7 -25 15 -4 11 1 15 19 15
13 0 27 -4 30 -10z m90 0 c-3 -5 -13 -10 -21 -10 -8 0 -14 5 -14 10 0 6 9 10
21 10 11 0 17 -4 14 -10z m370 0 c3 -5 1 -10 -4 -10 -6 0 -11 5 -11 10 0 6 2
10 4 10 3 0 8 -4 11 -10z m-167 -25 c3 -16 1 -17 -7 -5 -8 12 -13 12 -23 2
-18 -18 -28 -15 -28 9 0 16 5 20 27 17 19 -2 29 -10 31 -23z m-597 3 c15 -8
25 -24 27 -42 3 -18 0 -26 -7 -22 -6 4 -11 13 -11 20 0 7 -11 19 -25 26 -25
13 -34 30 -16 30 5 0 19 -6 32 -12z m107 -4 c34 -16 50 -34 33 -34 -20 0 -11
-19 12 -26 12 -4 28 -15 35 -25 7 -11 21 -19 30 -19 13 0 14 -2 3 -12 -10 -11
-16 -9 -28 10 -9 12 -22 22 -29 22 -8 0 -14 4 -14 8 0 5 -18 16 -40 25 -22 8
-40 20 -40 26 0 15 6 14 24 -5 9 -8 16 -11 16 -5 0 6 -9 16 -20 23 -11 7 -20
16 -20 20 0 11 2 10 38 -8z m327 -14 c3 -5 1 -10 -4 -10 -6 0 -11 5 -11 10 0
6 2 10 4 10 3 0 8 -4 11 -10z m219 -5 c-7 -17 -20 -20 -28 -6 -7 10 3 21 20
21 8 0 11 -6 8 -15z m282 -36 c91 -47 116 -64 108 -72 -8 -7 -75 22 -144 63
-30 18 -66 39 -80 47 -60 34 41 1 116 -38z m-238 13 c2 -7 -3 -12 -12 -12 -9
0 -16 7 -16 16 0 17 22 14 28 -4z m-775 -64 c50 -39 67 -46 67 -27 0 5 5 7 10
4 6 -3 10 -14 10 -23 0 -10 34 -39 85 -72 53 -34 87 -64 91 -78 7 -26 -20 -72
-47 -79 -10 -3 -16 -9 -13 -14 7 -12 -64 -42 -78 -33 -6 4 -8 3 -4 -4 3 -6 -7
-17 -24 -25 -30 -15 -35 -12 -31 21 2 14 -1 14 -23 6 -9 -3 -14 -10 -11 -14 3
-5 -3 -6 -13 -3 -14 3 -21 -5 -31 -37 -14 -46 -34 -59 -64 -41 -16 11 -22 10
-35 -3 -14 -14 -14 -16 1 -22 14 -5 14 -8 3 -20 -16 -16 -80 -8 -70 8 4 6 -1
6 -13 0 -27 -15 -118 29 -100 48 9 9 9 11 0 6 -6 -3 -15 -1 -19 5 -4 8 -3 9 4
5 7 -4 12 -1 12 8 0 9 -4 16 -10 16 -5 0 -9 5 -7 12 2 12 -59 35 -69 25 -4 -3
7 -18 22 -32 l29 -26 -37 23 c-23 14 -33 27 -28 32 6 6 5 15 -3 25 -10 12 -9
14 6 8 9 -3 17 -2 17 3 0 5 37 -7 83 -26 45 -20 93 -40 106 -45 13 -6 21 -12
18 -15 -3 -3 4 -15 15 -26 17 -17 22 -18 34 -6 13 13 -4 28 -131 117 -130 92
-145 106 -143 129 2 15 5 29 8 32 3 3 12 21 21 40 15 31 29 40 123 79 58 24
104 47 102 50 -3 4 17 6 42 6 39 0 55 -7 95 -37z m687 1 c0 -5 -7 -9 -15 -9
-9 0 -12 6 -9 15 6 15 24 11 24 -6z m535 1 c17 -11 23 -20 15 -20 -17 0 -71
39 -55 40 6 0 24 -9 40 -20z m-340 0 c3 -5 -1 -10 -9 -10 -8 0 -18 5 -21 10
-3 6 1 10 9 10 8 0 18 -4 21 -10z m-495 -20 c41 -21 69 -50 34 -36 -45 19 -58
17 -26 -4 17 -12 32 -23 32 -24 0 -1 -18 -2 -40 -1 -22 0 -40 3 -40 8 0 4 5 7
11 7 5 0 7 5 4 10 -4 6 -11 8 -16 5 -12 -8 -23 21 -15 40 7 19 9 19 56 -5z
m-135 -58 c-3 -3 -16 5 -28 17 l-22 23 28 -17 c15 -10 25 -20 22 -23z m505 28
c0 -5 -2 -10 -4 -10 -3 0 -8 5 -11 10 -3 6 -1 10 4 10 6 0 11 -4 11 -10z
m-230 -15 c17 -9 30 -20 30 -25 0 -15 -12 -12 -39 9 -19 14 -31 17 -48 10 -13
-5 -23 -5 -23 1 0 7 17 15 43 19 4 0 21 -6 37 -14z m870 -7 c20 -19 22 -23 8
-26 -20 -4 -78 25 -78 38 0 18 46 10 70 -12z m-885 -28 c3 -5 1 -10 -4 -10 -6
0 -11 5 -11 10 0 6 2 10 4 10 3 0 8 -4 11 -10z m-141 -24 c28 -14 60 -34 70
-45 11 -12 25 -21 33 -21 7 0 13 -4 13 -10 0 -5 -2 -10 -5 -10 -6 0 -88 52
-95 61 -3 3 -16 9 -30 12 -14 3 -34 13 -45 21 -31 24 1 19 59 -8z m96 14 c0
-5 -4 -10 -9 -10 -6 0 -13 5 -16 10 -3 6 1 10 9 10 9 0 16 -4 16 -10z m139 -4
c10 -12 8 -13 -9 -9 -25 7 -37 23 -17 23 8 0 20 -6 26 -14z m-155 -22 c4 -11
2 -12 -14 -4 -27 14 -34 29 -11 23 11 -3 22 -11 25 -19z m51 6 c3 -5 2 -10 -4
-10 -5 0 -13 5 -16 10 -3 6 -2 10 4 10 5 0 13 -4 16 -10z m843 -12 c-4 -17
-37 -30 -51 -21 -7 4 0 12 18 19 38 16 35 16 33 2z m-656 -15 c33 -15 51 -33
31 -33 -10 0 -93 41 -93 46 0 9 25 3 62 -13z m273 -53 c3 -5 16 -10 29 -10 13
0 31 -9 41 -20 10 -11 15 -20 12 -20 -4 0 -24 9 -44 20 -21 11 -42 20 -48 20
-5 0 -26 14 -45 31 l-35 30 42 -20 c23 -12 44 -25 48 -31z m425 18 c0 -16 -3
-19 -11 -11 -6 6 -8 16 -5 22 11 17 16 13 16 -11z m169 13 c23 -15 -3 -20 -29
-5 -22 12 -23 13 -5 13 11 1 26 -3 34 -8z m-1019 -120 c114 -60 186 -104 188
-115 3 -13 -86 -130 -154 -203 -6 -6 -16 -24 -23 -40 -19 -45 -42 -55 -82 -34
-19 10 -104 55 -189 100 -85 45 -161 88 -167 94 -10 10 -8 24 9 70 17 48 36
72 110 142 49 47 97 85 106 85 9 -1 100 -45 202 -99z m41 83 c12 -14 11 -16
-5 -13 -11 2 -21 10 -24 17 -5 17 13 15 29 -4z m-46 -4 c3 -5 2 -10 -4 -10 -5
0 -13 5 -16 10 -3 6 -2 10 4 10 5 0 13 -4 16 -10z m-899 -28 c-4 -3 -14 2 -24
12 -16 18 -16 18 6 6 13 -6 21 -14 18 -18z m1234 13 c7 -8 8 -15 2 -15 -5 0
-15 7 -22 15 -7 8 -8 15 -2 15 5 0 15 -7 22 -15z m-1368 -15 c18 -11 29 -20
25 -20 -11 0 -67 29 -67 35 0 9 9 5 42 -15z m1133 0 c3 -5 1 -10 -6 -10 -7 0
-4 -7 7 -15 29 -22 9 -18 -28 6 -25 16 -27 19 -9 14 16 -5 21 -4 17 4 -4 6 -3
11 3 11 5 0 13 -4 16 -10z m224 -18 c25 -15 47 -34 49 -41 3 -8 -11 -2 -30 12
-19 15 -40 27 -45 27 -6 0 -16 7 -23 15 -18 22 -1 17 49 -13z m516 18 c3 -5 2
-10 -4 -10 -5 0 -13 5 -16 10 -3 6 -2 10 4 10 5 0 13 -4 16 -10z m-860 -18
c-3 -3 -11 0 -18 7 -9 10 -8 11 6 5 10 -3 15 -9 12 -12z m1013 0 c3 -9 -2 -13
-14 -10 -9 1 -19 9 -22 16 -3 9 2 13 14 10 9 -1 19 -9 22 -16z m-587 -8 c17
-8 29 -17 27 -20 -5 -4 -68 25 -68 32 0 7 10 4 41 -12z m369 -20 c0 -8 -5 -12
-10 -9 -6 4 -8 11 -5 16 9 14 15 11 15 -7z m264 5 c28 -13 26 -29 -3 -29 -10
0 -21 9 -24 20 -6 23 -6 24 27 9z m-864 -19 c0 -13 -11 -13 -30 0 -12 8 -11
10 8 10 12 0 22 -4 22 -10z m295 0 c3 -6 -1 -7 -9 -4 -18 7 -21 14 -7 14 6 0
13 -4 16 -10z m-250 -12 c14 -6 25 -15 25 -20 0 -4 9 -8 19 -8 11 0 22 -4 25
-9 7 -10 -44 -1 -59 11 -5 5 -19 15 -30 23 -24 17 -15 19 20 3z m-1201 -13 c3
-8 1 -15 -4 -15 -6 0 -10 7 -10 15 0 8 2 15 4 15 2 0 6 -7 10 -15z m1416 0
c16 -19 0 -19 -26 0 -16 12 -16 14 -3 15 9 0 22 -7 29 -15z m676 -13 c-9 -9
-37 8 -31 18 5 8 11 7 21 -1 8 -6 12 -14 10 -17z m-2232 2 c4 -10 1 -14 -6
-12 -15 5 -23 28 -10 28 5 0 13 -7 16 -16z m80 -3 c4 -5 -3 -7 -14 -4 -23 6
-26 13 -6 13 8 0 17 -4 20 -9z m95 -23 c8 3 11 0 7 -7 -4 -6 -2 -11 3 -11 6 0
11 -7 11 -15 0 -18 -17 -11 -60 25 l-25 20 25 -8 c14 -5 31 -7 39 -4z m1518
-15 c-9 -2 -15 -9 -12 -14 4 -5 1 -9 -4 -9 -12 0 -14 13 -4 23 3 4 13 6 22 6
13 -1 12 -2 -2 -6z m-217 -24 c26 -15 29 -18 10 -13 -27 7 -71 34 -55 34 6 -1
26 -10 45 -21z m425 1 c3 -5 2 -10 -4 -10 -5 0 -13 5 -16 10 -3 6 -2 10 4 10
5 0 13 -4 16 -10z m530 0 c3 -5 -1 -10 -10 -10 -9 0 -13 5 -10 10 3 6 8 10 10
10 2 0 7 -4 10 -10z m-2448 -7 c-4 -3 -2 -12 4 -20 8 -9 8 -13 1 -13 -6 0 -14
5 -17 10 -6 10 2 30 12 30 4 0 3 -3 0 -7z m273 -18 c0 -2 -9 -3 -19 -2 -11 0
-18 5 -15 9 4 6 34 0 34 -7z m1290 -5 c0 -5 -4 -10 -9 -10 -6 0 -13 5 -16 10
-3 6 1 10 9 10 9 0 16 -4 16 -10z m195 0 c3 -6 -1 -7 -9 -4 -18 7 -21 14 -7
14 6 0 13 -4 16 -10z m-1419 -25 c24 -18 7 -19 -26 0 -16 9 -19 14 -9 15 8 0
24 -7 35 -15z m1297 -29 c-4 -5 -11 -2 -18 7 -7 10 -18 17 -26 18 -8 0 -5 4 6
8 21 8 48 -15 38 -33z m-1633 19 c7 -9 8 -15 2 -15 -5 0 -12 7 -16 15 -3 8 -4
15 -2 15 2 0 9 -7 16 -15z m1562 -43 c40 -27 120 -80 176 -117 82 -52 103 -71
99 -85 -4 -16 -2 -17 14 -7 17 10 33 5 107 -33 47 -25 92 -44 99 -44 7 1 11
-2 8 -6 -2 -4 7 -12 21 -19 15 -6 23 -7 19 -1 -9 15 7 11 30 -7 16 -13 17 -15
3 -10 -32 11 -19 -2 24 -24 37 -19 41 -19 28 -4 -14 17 -14 17 8 6 39 -21 36
-5 -4 20 -21 13 -32 25 -25 27 7 2 25 -7 39 -20 15 -14 42 -31 59 -38 20 -7
30 -17 26 -24 -4 -6 0 -6 9 2 13 11 23 7 60 -21 24 -19 53 -39 63 -46 20 -12
20 -12 0 -7 -20 6 -20 6 -1 -9 22 -17 40 -20 31 -5 -3 6 -1 10 5 10 7 0 10 -6
7 -14 -6 -14 1 -21 75 -76 26 -19 50 -41 53 -49 4 -11 1 -10 -13 2 -10 9 -23
17 -29 17 -6 0 -13 7 -17 15 -3 8 -11 15 -18 15 -8 0 -20 9 -28 20 -8 11 -23
20 -33 20 -9 0 -20 7 -23 15 -4 8 -18 15 -34 15 -15 0 -38 9 -51 21 l-24 21
30 -17 30 -16 -30 27 c-17 16 -31 22 -33 15 -2 -7 -15 -3 -35 11 -17 12 -27
16 -22 8 13 -22 13 -49 0 -54 -7 -2 -37 -40 -67 -83 -30 -43 -63 -84 -72 -92
-9 -8 -23 -29 -31 -48 -8 -18 -20 -35 -27 -38 -19 -7 -406 199 -415 221 -8 21
40 114 92 179 68 84 75 98 24 43 -25 -27 -50 -48 -57 -48 -7 0 -12 -4 -12 -10
0 -5 -5 -10 -11 -10 -6 0 -20 -11 -31 -25 -11 -14 -26 -25 -33 -25 -8 0 -26
-12 -40 -26 -16 -16 -33 -24 -45 -21 -25 7 -351 228 -357 243 -2 6 7 38 20 70
24 57 26 58 143 126 66 37 125 66 131 63 7 -2 45 -26 85 -53z m335 8 c7 0 13
-4 13 -10 0 -17 -22 -11 -72 21 -61 40 -62 47 -1 14 27 -14 54 -25 60 -25z
m-1370 34 c-3 -3 -12 -4 -19 -1 -8 3 -5 6 6 6 11 1 17 -2 13 -5z m1183 -9 c7
-8 25 -15 40 -15 15 0 34 -7 41 -16 12 -15 11 -16 -11 -10 -45 13 -100 39
-100 48 0 13 16 9 30 -7z m-1248 -15 c-1 -7 3 -19 10 -28 12 -14 11 -14 -9 -1
-25 15 -30 29 -10 29 8 0 7 4 -3 11 -13 9 -13 10 0 6 8 -2 14 -10 12 -17z
m-172 0 c13 -8 13 -10 -2 -10 -9 0 -20 5 -23 10 -8 13 5 13 25 0z m-195 -10
c3 -5 2 -10 -4 -10 -5 0 -13 5 -16 10 -3 6 -2 10 4 10 5 0 13 -4 16 -10z
m1605 -16 c28 -14 53 -30 56 -36 5 -8 -103 46 -115 57 -11 12 13 3 59 -21z
m-1026 1 c26 -1 51 -7 55 -12 3 -6 19 -13 35 -17 16 -4 48 -20 71 -36 23 -16
45 -27 48 -24 3 3 10 -3 16 -14 7 -14 17 -18 31 -15 11 3 20 0 20 -6 0 -6 10
-11 23 -12 12 0 16 -3 10 -6 -7 -2 -13 -9 -13 -14 0 -6 5 -7 10 -4 15 9 51 -5
44 -17 -4 -6 1 -8 14 -4 11 4 23 2 27 -4 3 -5 15 -10 26 -10 24 0 24 -9 2 -26
-17 -13 -17 -14 0 -8 12 4 17 1 17 -11 0 -12 -5 -15 -17 -10 -10 4 -27 9 -38
10 -11 2 -22 4 -25 6 -6 3 -22 6 -35 8 -5 1 -3 6 5 12 11 8 7 9 -17 4 -22 -4
-33 -3 -33 5 0 6 -4 8 -10 5 -6 -3 -7 1 -4 9 3 9 4 16 1 16 -2 0 -21 7 -40 15
-32 13 -36 13 -31 0 8 -19 3 -19 -41 2 -19 9 -31 19 -25 23 5 3 -3 14 -19 23
-28 17 -29 16 -24 -3 6 -23 -12 -27 -24 -6 -4 7 -18 18 -30 24 -12 7 -27 27
-33 46 -8 24 -16 33 -26 29 -8 -3 -14 -1 -14 4 0 6 -10 15 -22 22 -17 9 -18
10 -3 5 11 -4 42 -8 69 -9z m-438 -20 c3 -17 2 -17 -20 -9 -12 5 -13 9 -3 19
13 14 20 12 23 -10z m356 -20 c20 -14 42 -25 47 -25 6 0 11 -5 11 -10 0 -11
-60 17 -95 44 -33 25 -3 18 37 -9z m1365 19 c-3 -3 -12 -4 -19 -1 -8 3 -5 6 6
6 11 1 17 -2 13 -5z m109 -34 c22 -10 32 -20 32 -37 0 -28 -23 -30 -38 -3 -6
11 -17 20 -25 20 -7 0 -17 5 -20 10 -7 11 4 33 13 27 4 -2 21 -10 38 -17z
m-158 -60 c71 -39 144 -75 161 -81 17 -6 31 -15 31 -21 0 -5 5 -6 10 -3 6 3
10 2 10 -3 0 -5 15 -17 33 -26 17 -9 43 -24 57 -34 24 -16 24 -16 11 1 -10 12
-10 17 -1 17 6 0 14 -9 17 -19 3 -11 12 -22 20 -25 8 -3 11 -10 8 -16 -4 -6
-23 2 -49 20 -28 21 -49 29 -62 24 -14 -4 -16 -3 -5 4 11 8 10 12 -7 21 -28
15 -37 14 -23 -3 9 -10 8 -15 -4 -19 -8 -4 -14 -2 -12 4 1 5 -16 18 -38 29
-36 17 -37 19 -10 14 27 -5 26 -3 -15 21 -86 51 -143 77 -161 72 -10 -3 -26 2
-36 10 -10 8 -12 11 -4 7 9 -5 12 -3 7 4 -4 7 -17 12 -30 12 -13 0 -36 11 -52
25 -16 14 -24 25 -17 25 6 0 14 -4 17 -9 3 -5 16 -11 28 -14 22 -6 22 -6 -2
13 -44 34 -15 22 118 -50z m38 42 c-4 -3 -14 2 -24 12 -16 18 -16 18 6 6 13
-6 21 -14 18 -18z m223 -1 c21 -14 22 -16 7 -19 -12 -3 -14 -7 -8 -15 7 -8 5
-16 -4 -25 -8 -7 -14 -9 -14 -5 0 4 -4 3 -8 -4 -9 -14 -52 -6 -52 9 0 5 5 6
10 3 6 -3 10 -1 10 5 0 8 9 10 23 6 19 -4 23 -2 22 16 -1 11 -13 27 -28 35
-15 7 -27 16 -27 19 0 8 42 -7 69 -25z m-1889 -1 c0 -5 -2 -10 -4 -10 -3 0 -8
5 -11 10 -3 6 -1 10 4 10 6 0 11 -4 11 -10z m-50 -21 c0 -6 -4 -7 -10 -4 -5 3
-10 11 -10 16 0 6 5 7 10 4 6 -3 10 -11 10 -16z m-125 -9 c3 -6 -1 -7 -9 -4
-18 7 -21 14 -7 14 6 0 13 -4 16 -10z m1876 -21 c19 -16 20 -18 4 -10 -34 17
-51 31 -39 31 7 0 22 -9 35 -21z m69 11 c0 -5 -2 -10 -4 -10 -3 0 -8 5 -11 10
-3 6 -1 10 4 10 6 0 11 -4 11 -10z m-1622 -27 c16 -25 2 -32 -18 -8 -7 8 -21
15 -31 15 -10 0 -20 3 -22 8 -3 4 9 7 25 7 21 0 35 -7 46 -22z m282 17 c0 -5
-5 -10 -11 -10 -5 0 -7 5 -4 10 3 6 8 10 11 10 2 0 4 -4 4 -10z m1545 0 c3 -6
-1 -7 -9 -4 -18 7 -21 14 -7 14 6 0 13 -4 16 -10z m-9 -26 c27 -15 27 -15 4
-10 -14 3 -33 6 -42 6 -10 0 -18 5 -18 10 0 15 24 12 56 -6z m109 -32 c-6 -7
-55 11 -50 18 3 5 16 3 29 -3 14 -7 23 -13 21 -15z m-1615 14 c0 -3 -4 -8 -10
-11 -5 -3 -10 -1 -10 4 0 6 5 11 10 11 6 0 10 -2 10 -4z m180 -18 c0 -13 -23
-5 -28 10 -2 7 2 10 12 6 9 -3 16 -11 16 -16z m1205 12 c3 -5 -3 -10 -14 -10
-12 0 -21 5 -21 10 0 6 6 10 14 10 8 0 18 -4 21 -10z m85 -5 c0 -8 -4 -15 -10
-15 -5 0 -10 7 -10 15 0 8 5 15 10 15 6 0 10 -7 10 -15z m-33 -31 c-7 -7 -37
7 -37 17 0 6 9 5 21 -1 11 -7 19 -14 16 -16z m-157 -10 c0 -2 -9 0 -20 6 -11
6 -20 13 -20 16 0 2 9 0 20 -6 11 -6 20 -13 20 -16z m365 16 c-3 -5 -11 -10
-16 -10 -6 0 -7 5 -4 10 3 6 11 10 16 10 6 0 7 -4 4 -10z m-1245 -16 c0 -8 -4
-12 -10 -9 -5 3 -10 10 -10 16 0 5 5 9 10 9 6 0 10 -7 10 -16z m-430 -35 c0
-11 -4 -19 -8 -19 -16 0 -30 22 -25 41 4 15 8 17 19 8 8 -6 14 -20 14 -30z
m484 10 c-3 -5 1 -7 8 -4 7 3 26 -6 43 -19 l29 -23 -57 10 c-31 6 -57 14 -57
18 0 5 -7 6 -15 3 -8 -4 -15 -1 -15 5 0 6 5 11 10 11 6 0 10 7 10 15 0 12 4
13 25 3 13 -6 22 -15 19 -19z m1251 13 c-3 -3 -11 0 -18 7 -9 10 -8 11 6 5 10
-3 15 -9 12 -12z m-1960 -12 c3 -5 1 -10 -4 -10 -6 0 -11 5 -11 10 0 6 2 10 4
10 3 0 8 -4 11 -10z m270 -50 c-3 -5 -10 -10 -16 -10 -5 0 -9 5 -9 10 0 6 7
10 16 10 8 0 12 -4 9 -10z m-763 -24 c3 2 11 -2 18 -11 19 -23 -9 -19 -40 6
-20 16 -21 18 -4 10 12 -6 24 -8 26 -5z m203 -23 c56 -39 78 -67 27 -35 -73
45 -102 64 -102 68 0 11 25 0 75 -33z m152 -28 c65 -33 120 -63 123 -66 6 -8
73 -43 82 -44 3 0 24 -16 47 -36 22 -19 79 -55 127 -80 48 -25 95 -57 107 -73
l21 -29 -26 6 c-27 7 -183 98 -314 183 -44 29 -109 67 -144 86 -35 18 -79 48
-98 66 -19 17 -38 32 -43 32 -4 0 -11 5 -15 11 -9 16 -3 13 133 -56z m975 37
c-21 -3 -22 -5 -8 -15 14 -11 12 -15 -10 -34 -27 -25 -35 -17 -31 30 3 35 24
49 51 34 21 -11 21 -12 -2 -15z m-475 -4 c-3 -8 -6 -5 -6 6 -1 11 2 17 5 13 3
-3 4 -12 1 -19z m417 -3 c4 -13 2 -14 -14 -5 -23 13 -26 20 -6 20 8 0 16 -7
20 -15z m-1114 -21 c0 -12 -4 -12 -19 -2 -11 7 -18 15 -15 20 7 11 34 -3 34
-18z m2193 16 c7 -6 21 -17 32 -26 11 -8 1 -6 -22 6 -24 11 -43 23 -43 25 0 9
21 5 33 -5z m135 -8 c2 -7 -2 -10 -12 -6 -9 3 -16 11 -16 16 0 13 23 5 28 -10z
m-1788 -8 c0 -17 -22 -14 -28 4 -2 7 3 12 12 12 9 0 16 -7 16 -16z m-620 -14
c0 -5 -4 -10 -9 -10 -6 0 -13 5 -16 10 -3 6 1 10 9 10 9 0 16 -4 16 -10z
m2445 0 c3 -5 2 -10 -4 -10 -5 0 -13 5 -16 10 -3 6 -2 10 4 10 5 0 13 -4 16
-10z m-75 -38 c-7 -3 -19 3 -28 13 -16 15 -15 16 12 4 15 -7 23 -15 16 -17z
m-2170 -77 c30 -15 62 -33 70 -40 8 -8 47 -30 85 -51 56 -29 121 -71 174 -111
2 -2 2 -5 -1 -8 -3 -3 -25 4 -49 15 -24 11 -55 20 -69 20 -25 0 -25 0 -4 -13
90 -51 124 -73 124 -79 0 -5 7 -8 15 -8 18 0 20 27 3 33 -7 2 -9 8 -5 13 4 4
17 -2 29 -14 19 -19 20 -22 5 -28 -9 -3 -17 -12 -17 -20 0 -23 -23 -16 -102
34 -99 62 -162 100 -223 136 -27 16 -55 35 -63 42 -7 8 -23 19 -34 25 -11 6
-18 13 -15 15 6 6 103 -44 151 -78 21 -15 42 -26 46 -23 4 3 13 -2 20 -10 7
-8 19 -15 27 -15 21 0 10 24 -13 29 -10 2 -39 20 -64 40 -25 20 -52 41 -61 46
-80 50 -157 109 -153 117 3 5 20 -2 37 -15 18 -13 57 -37 87 -52z m63 63 c3
-7 27 -24 53 -38 117 -59 229 -148 210 -167 -3 -3 -8 2 -12 11 -3 9 -12 16
-20 16 -8 0 -14 4 -14 9 0 4 -12 6 -26 3 -14 -2 -29 -1 -33 4 -3 5 -22 17 -41
27 -42 21 -110 81 -110 97 0 6 -14 17 -30 24 -31 13 -31 26 1 26 9 0 19 -6 22
-12z m2207 -44 c0 -2 -9 0 -20 6 -11 6 -20 13 -20 16 0 2 9 0 20 -6 11 -6 20
-13 20 -16z m-2385 -14 c3 -6 -1 -7 -9 -4 -18 7 -21 14 -7 14 6 0 13 -4 16
-10z m2209 -5 c11 -8 16 -15 10 -15 -5 0 -18 7 -28 15 -11 8 -16 15 -10 15 5
0 18 -7 28 -15z m-1239 -63 c-3 -3 -11 0 -18 7 -9 10 -8 11 6 5 10 -3 15 -9
12 -12z m-1090 -14 c14 -6 25 -14 25 -18 0 -4 42 -28 93 -53 67 -34 97 -55
110 -78 22 -39 17 -45 -25 -29 -40 16 -78 49 -78 67 0 7 -6 13 -13 13 -25 0
-127 60 -165 97 -11 11 -10 13 7 13 11 0 32 -5 46 -12z m2465 -18 c13 -11 20
-20 16 -20 -4 0 -19 9 -33 20 -14 11 -21 20 -16 20 6 0 20 -9 33 -20z m-760
-30 c0 -4 -11 -5 -25 -2 -14 2 -25 8 -25 12 0 4 11 5 25 2 14 -2 25 -8 25 -12z
m-1510 -10 c0 -5 -2 -10 -4 -10 -3 0 -8 5 -11 10 -3 6 -1 10 4 10 6 0 11 -4
11 -10z m1620 -10 c8 -5 11 -10 5 -10 -5 0 -17 5 -25 10 -8 5 -10 10 -5 10 6
0 17 -5 25 -10z m-93 -30 c6 0 16 -7 23 -15 25 -30 -32 -14 -80 23 -2 1 2 7
10 12 10 7 19 5 26 -5 6 -8 16 -15 21 -15z m768 19 c11 -16 1 -19 -13 -3 -7 8
-8 14 -3 14 5 0 13 -5 16 -11z m-1350 -9 c19 -8 19 -9 -2 -9 -12 -1 -25 4 -28
9 -7 12 2 12 30 0z m655 -22 c0 -6 -6 -5 -15 2 -8 7 -15 14 -15 16 0 2 7 1 15
-2 8 -4 15 -11 15 -16z m-550 -18 c0 -13 -20 -13 -40 0 -12 8 -9 10 13 10 15
0 27 -4 27 -10z m100 -40 c0 -14 -14 -12 -28 2 -19 19 -14 30 8 18 11 -6 20
-15 20 -20z m210 9 c0 -4 -7 -6 -15 -3 -8 4 -15 10 -15 15 0 4 7 6 15 3 8 -4
15 -10 15 -15z m55 -19 c3 -5 -1 -10 -9 -10 -9 0 -16 5 -16 10 0 6 4 10 9 10
6 0 13 -4 16 -10z m-1411 -6 c9 -3 16 -12 16 -20 0 -20 -13 -17 -28 6 -13 22
-12 23 12 14z m1756 -4 c0 -5 -2 -10 -4 -10 -3 0 -8 5 -11 10 -3 6 -1 10 4 10
6 0 11 -4 11 -10z m-96 -6 c9 -3 16 -15 16 -25 0 -14 10 -20 40 -25 22 -4 40
-11 40 -16 0 -5 -8 -7 -17 -4 -10 3 -30 8 -44 11 -15 4 -36 20 -48 36 -21 29
-18 35 13 23z m-1169 -24 c14 -16 15 -20 4 -20 -16 0 -39 19 -39 32 0 14 16 9
35 -12z m840 -10 c3 -5 1 -10 -4 -10 -6 0 -11 5 -11 10 0 6 2 10 4 10 3 0 8
-4 11 -10z m255 -30 c8 -5 11 -10 5 -10 -5 0 -17 5 -25 10 -8 5 -10 10 -5 10
6 0 17 -5 25 -10z m119 -20 c10 0 26 -9 36 -20 18 -19 17 -20 -3 -20 -12 0
-31 9 -41 19 -11 11 -21 16 -23 12 -2 -4 -14 -4 -28 0 l-25 7 28 1 c15 1 27 7
28 14 0 10 2 10 6 0 2 -7 13 -13 22 -13z m241 -90 c0 -5 -2 -10 -4 -10 -3 0
-8 5 -11 10 -3 6 -1 10 4 10 6 0 11 -4 11 -10z m-1130 -91 c0 -5 -4 -9 -10 -9
-5 0 -10 7 -10 16 0 8 5 12 10 9 6 -3 10 -10 10 -16z"/>
<path d="M588 1503 l-57 -25 37 -26 c78 -53 142 -67 142 -32 0 16 5 19 24 14
26 -6 39 6 31 28 -9 19 -82 68 -103 67 -9 0 -43 -12 -74 -26z m116 -9 c9 -3
16 -12 16 -20 0 -16 -28 -18 -50 -4 -13 9 -13 11 0 20 18 12 15 11 34 4z m-34
-47 c0 -15 -32 -19 -58 -7 l-27 12 25 13 c18 10 28 10 42 1 10 -6 18 -14 18
-19z"/>
<path d="M698 1333 c-10 -3 -18 -11 -18 -19 0 -18 11 -18 35 -1 20 15 10 26
-17 20z"/>
<path d="M406 1205 c7 -17 20 -20 28 -6 3 5 -1 12 -10 15 -22 9 -24 8 -18 -9z"/>
<path d="M468 1203 c12 -2 20 -9 17 -14 -3 -5 1 -6 10 -2 13 5 14 7 3 14 -7 5
-22 8 -33 7 -17 -1 -17 -1 3 -5z"/>
<path d="M460 1176 c0 -2 8 -10 18 -17 15 -13 16 -12 3 4 -13 16 -21 21 -21
13z"/>
<path d="M420 1160 c0 -5 5 -10 10 -10 6 0 10 5 10 10 0 6 -4 10 -10 10 -5 0
-10 -4 -10 -10z"/>
<path d="M529 1140 c21 -18 51 -27 51 -15 0 6 -56 35 -67 35 -4 -1 3 -10 16
-20z"/>
<path d="M1072 1237 l-43 -44 61 -32 c34 -18 64 -30 67 -27 3 3 -11 13 -31 23
l-36 17 40 41 41 41 -26 12 c-14 7 -27 12 -28 12 -2 0 -22 -20 -45 -43z"/>
<path d="M1224 1073 c7 -13 -4 -17 -31 -14 -19 3 -16 -7 6 -18 13 -7 23 -6 36
2 16 12 16 14 -1 28 -11 8 -15 9 -10 2z"/>
<path d="M1530 995 c-21 -26 -3 -64 46 -95 112 -71 231 -29 147 53 -55 52
-165 76 -193 42z m167 -37 c17 -19 17 -21 -10 -44 -33 -28 -56 -30 -97 -9 -34
18 -38 35 -12 57 34 31 89 29 119 -4z"/>
<path d="M1673 793 c-14 -5 -18 -23 -5 -23 5 0 17 7 28 15 14 11 15 14 4 14
-8 0 -21 -3 -27 -6z"/>
<path d="M2013 743 c-30 -6 -40 -46 -20 -77 15 -23 127 -86 152 -86 7 0 20 11
28 24 15 22 14 24 -23 45 -45 25 -57 27 -40 5 11 -12 11 -18 -3 -31 -14 -14
-18 -14 -46 6 -37 27 -40 55 -6 77 30 20 67 13 113 -22 17 -14 32 -21 32 -15
0 33 -129 84 -187 74z"/>
<path d="M2323 685 c0 -8 4 -12 9 -9 4 3 8 9 8 15 0 5 -4 9 -8 9 -5 0 -9 -7
-9 -15z"/>
<path d="M2400 654 c0 -8 5 -12 10 -9 6 4 27 -3 48 -15 l37 -21 -35 30 c-39
34 -60 39 -60 15z"/>
<path d="M2194 523 c4 -7 2 -13 -3 -13 -6 0 -11 -7 -11 -15 0 -8 5 -15 10 -15
17 0 24 30 10 43 -10 9 -11 9 -6 0z"/>
<path d="M855 970 c3 -5 14 -10 23 -10 15 0 15 2 2 10 -20 13 -33 13 -25 0z"/>
<path d="M910 934 c0 -8 5 -12 10 -9 6 4 8 11 5 16 -9 14 -15 11 -15 -7z"/>
<path d="M815 1790 c3 -5 10 -10 16 -10 5 0 9 5 9 10 0 6 -7 10 -16 10 -8 0
-12 -4 -9 -10z"/>
<path d="M945 1690 c-3 -5 -1 -10 4 -10 6 0 11 5 11 10 0 6 -2 10 -4 10 -3 0
-8 -4 -11 -10z"/>
<path d="M0 190 l0 -190 160 0 c88 0 160 4 160 8 0 4 -18 26 -40 47 -22 21
-40 35 -40 31 0 -8 -63 54 -65 64 -1 3 -5 13 -10 23 -4 10 -5 20 -3 23 9 9 38
-8 38 -23 0 -18 24 -43 43 -43 8 0 22 -9 32 -20 10 -11 24 -20 32 -20 7 0 13
-4 13 -10 0 -5 6 -10 14 -10 8 0 16 -7 20 -15 7 -19 65 -55 89 -55 34 0 19 36
-23 55 -37 17 -78 55 -158 152 -18 22 -48 46 -67 53 -19 8 -35 17 -35 22 0 4
-5 8 -11 8 -6 0 -39 20 -73 45 -35 25 -66 45 -70 45 -3 0 -6 -85 -6 -190z"/>
<path d="M530 260 c0 -6 7 -10 15 -10 8 0 15 2 15 4 0 2 -7 6 -15 10 -8 3 -15
1 -15 -4z"/>
</g>
</svg>
